<svg xmlns="http://www.w3.org/2000/svg" viewBox="0 0 373.03 112.69"><defs><style>.cls-1,.cls-3,.cls-4{fill:none;}.cls-2{fill:#fff;}.cls-3{stroke:#ff2079;}.cls-3,.cls-4{stroke-miterlimit:10;stroke-width:2px;}.cls-4{stroke:#01bdc6;}</style></defs><g id="logo"><polygon class="cls-1" points="331.43 89.29 328.1 81.65 322.26 94.42 322.28 94.42 327.12 84.05 322.28 94.42 333.56 94.42 331.43 89.29"/><polygon class="cls-1" points="212.75 94.42 224.16 94.42 218.59 81.65 212.75 94.42"/><path class="cls-2" d="M185.46,101.37a19.28,19.28,0,0,0-4.74,12.79,18.62,18.62,0,0,0,5.67,13.67,18.82,18.82,0,0,0,13.74,5.62,20.52,20.52,0,0,0,10.22-2.75v-6.83a29.46,29.46,0,0,1-2.64,2,15.87,15.87,0,0,1-2.42,1.32,12.16,12.16,0,0,1-5.09,1,13.21,13.21,0,0,1-9.78-4.06,13.7,13.7,0,0,1-4-10,14,14,0,0,1,4-10.12,13,13,0,0,1,9.76-4.16q5.25,0,10.17,4.12V97.23a19.22,19.22,0,0,0-9.78-2.75A18.89,18.89,0,0,0,185.46,101.37Z" transform="translate(-13.99 -23.9)"/><polygon class="cls-2" points="268.7 97.41 241.31 68.75 241.31 108.87 246.98 108.87 246.98 82.57 274.37 111.15 274.37 71.31 268.7 71.31 268.7 97.41"/><polygon class="cls-2" points="306.18 71.31 295.65 97.34 285.26 71.31 279.06 71.31 295.53 111.69 312.39 71.31 306.18 71.31"/><polygon class="cls-2" points="309.61 108.87 315.54 108.87 322.28 94.42 322.26 94.42 328.1 81.65 331.43 89.29 329.61 84.88 331.43 89.29 333.67 94.42 333.56 94.42 335.76 99.74 335.98 99.74 339.92 108.87 346.12 108.87 328.2 68.95 309.61 108.87"/><path class="cls-2" d="M384.9,115a16,16,0,0,0-6.69-4.51l-3.75-1.53q-4.08-1.68-4.08-4.43a4.14,4.14,0,0,1,1.55-3.31,5.83,5.83,0,0,1,3.92-1.34,5.73,5.73,0,0,1,3.14.78,8.06,8.06,0,0,1,2.45,2.92l4.6-2.72q-3.65-6.33-10.14-6.33a11.69,11.69,0,0,0-8,2.87,9.05,9.05,0,0,0-3.24,7.08c0,4.19,2.57,7.36,7.71,9.54l3.63,1.51a16.05,16.05,0,0,1,2.43,1.27,7.72,7.72,0,0,1,1.66,1.44,5,5,0,0,1,.95,1.68,6,6,0,0,1,.31,2,6.16,6.16,0,0,1-1.75,4.5,6.48,6.48,0,0,1-9.52-.65,9.92,9.92,0,0,1-1.36-4.58l-5.74,1.27a13.36,13.36,0,0,0,3.92,8.15,11.52,11.52,0,0,0,8.07,2.89,11.86,11.86,0,0,0,8.64-3.4,11.5,11.5,0,0,0,3.45-8.57A10.17,10.17,0,0,0,384.9,115Z" transform="translate(-13.99 -23.9)"/><polygon class="cls-2" points="199.76 109.58 205.68 109.58 212.43 95.13 212.41 95.13 218.25 82.36 221.58 90 219.76 85.59 221.58 90 223.82 95.13 223.7 95.13 225.91 100.46 226.13 100.46 230.07 109.58 236.27 109.58 218.34 69.66 199.76 109.58"/><polygon class="cls-1" points="316.55 42.94 327.95 42.94 322.38 30.17 316.55 42.94"/><path class="cls-1" d="M248.92,54.83q0-5.78-7.83-5.77h-2V61h1.8Q248.93,61,248.92,54.83Z" transform="translate(-13.99 -23.9)"/><polygon class="cls-2" points="183.32 45.86 172.94 19.83 166.73 19.83 183.2 60.21 200.06 19.83 193.85 19.83 183.32 45.86"/><rect class="cls-2" x="204.73" y="19.83" width="5.67" height="37.56"/><path class="cls-2" d="M252.16,61.61a10.66,10.66,0,0,0,2.29-6.85,10.3,10.3,0,0,0-3.65-8.23q-3.31-2.79-10.75-2.79h-6.64V81.29h5.66V65.92h1l10.73,15.37h6.93l-11.62-16A10.23,10.23,0,0,0,252.16,61.61ZM239.07,61V49.06h2q7.83,0,7.83,5.77,0,6.15-8,6.15Z" transform="translate(-13.99 -23.9)"/><polygon class="cls-2" points="245.03 25.16 253.67 25.16 253.67 57.39 259.33 57.39 259.33 25.16 267.94 25.16 267.94 19.83 245.03 19.83 245.03 25.16"/><path class="cls-2" d="M309.13,66.36q0,4.9-1.58,7.08a8.47,8.47,0,0,1-13.31,0q-1.58-2.25-1.58-7.08V43.74H287V67.91A13.62,13.62,0,0,0,300.88,82a13.68,13.68,0,0,0,10.22-4.28,13.54,13.54,0,0,0,3.69-9.78V43.74h-5.66Z" transform="translate(-13.99 -23.9)"/><polygon class="cls-2" points="350.77 19.83 345.1 19.83 345.1 57.39 361.81 57.39 361.81 52.06 350.77 52.06 350.77 19.83"/><polygon class="cls-2" points="303.71 57.64 309.63 57.64 316.37 43.19 316.36 43.19 322.19 30.42 325.53 38.06 323.7 33.65 325.53 38.06 327.76 43.19 327.65 43.19 329.85 48.52 330.08 48.52 334.02 57.64 340.22 57.64 322.29 17.72 303.71 57.64"/><polygon class="cls-3" points="39.61 46.09 1.73 111.69 77.48 111.69 39.61 46.09"/><polygon class="cls-4" points="63.34 23.72 25.46 89.32 101.21 89.32 63.34 23.72"/><polygon class="cls-3" points="86.86 2 48.98 67.6 124.73 67.6 86.86 2"/></g></svg>